# xmcd
#
# Track frame offsets:
#	150
#	15820
#	31580
#	52353
#	68316
#	83687
#	99836
#	119208
#	135430
#	150133
#	165991
#	188338
#	209474
#
# Disc length: 3089 seconds
#
# Revision: 1
# Processed by: cddbd v1.5.2PL0 Copyright (c) Steve Scherf et al.
# Submitted via: CDmax 2.0
#
DISCID=8a0c0f0d
DTITLE=Johnny Winter And - Johnny Winter And and 2
DYEAR=1971
DGENRE=Blues
TTITLE0=Guess I'll Go Away
TTITLE1=Ain't That A Kindness
TTITLE2=No Time To Live
TTITLE3=Rock And Roll Hoochie Koo
TTITLE4=Am I Here
TTITLE5=Look Up
TTITLE6=Prodigal Son
TTITLE7=On The Limb
TTITLE8=Let The Music Play
TTITLE9=Nothing Left
TTITLE10=Funky Music
TTITLE11=Guess I'll Go Away (Live At The Fillmore East, October 3, 1970)
TTITLE12=Rock And Roll Hoochie Koo (Live At The Fillmore East, October 3, 197
TTITLE12=0)
EXTD=
EXTT0=
EXTT1=
EXTT2=
EXTT3=
EXTT4=
EXTT5=
EXTT6=
EXTT7=
EXTT8=
EXTT9=
EXTT10=
EXTT11=
EXTT12=
PLAYORDER=
